# xmcd
#
# Track frame offsets:
#	150
#	27144
#	52487
#	75617
#	102400
#	131983
#	148382
#	172901
#	199824
#	226689
#	278356
#	307859
#
# Disc length: 4421 seconds
#
# Revision: 0
# Processed by: cddbd v1.5.2PL0 Copyright (c) Steve Scherf et al.
# Submitted via: audiograbber 1.83.01
#
DISCID=a311430c
DTITLE=Young, Neil - Heart of Gold Live 10CD08
DYEAR=1986
DGENRE=POP-ROCK-JAZZ
TTITLE0=Sample and hold
TTITLE1=Computer age
TTITLE2=Violent side
TTITLE3=Mideast vacation
TTITLE4=Long walk home
TTITLE5=The needle and the damage don
TTITLE6=When your lonely heart breaks
TTITLE7=Around the world
TTITLE8=Powderfinger
TTITLE9=Like a hurricane
TTITLE10=Hey hey, my my
TTITLE11=Prisoners of rock n' roll
EXTD=
EXTT0=
EXTT1=
EXTT2=
EXTT3=
EXTT4=
EXTT5=
EXTT6=
EXTT7=
EXTT8=
EXTT9=
EXTT10=
EXTT11=
PLAYORDER=
